<?xml version="1.0" encoding="UTF-8"?>
<svg width="36" height="18" viewBox="0 0 36 18" xmlns="http://www.w3.org/2000/svg" xmlns:xlink="http://www.w3.org/1999/xlink">
    <path id="Path" fill="#ffffff" stroke="none"
          d="M 13.049364 16.662685 C 10.227212 16.658094 7.922546 14.405847 7.853045 11.584545 C 7.783543 8.763247 9.974511 6.400249 12.793015 6.256704 C 12.988648 3.558298 15.347159 1.337301 18.101088 1.337301 C 19.445942 1.336185 20.737968 1.860779 21.701384 2.79911 C 22.626104 3.693738 23.228056 4.959394 23.354156 6.272271 C 25.999199 6.515739 28.036863 8.711359 28.082537 11.367191 C 28.128214 14.023025 26.167253 16.287415 23.532146 16.621691 L 23.513466 16.621691 L 21.151323 16.651789 L 17.827097 13.311993 C 17.439978 13.882811 16.958418 14.540285 16.413548 15.092939 C 15.374143 16.149988 14.273505 16.662685 13.049364 16.662685 Z M 12.680408 8.144031 C 10.915305 8.331511 9.607052 9.869812 9.705452 11.642115 C 9.803851 13.414416 11.274353 14.798439 13.049364 14.789371 C 14.457723 14.789371 15.519959 13.424082 16.478933 11.960196 Z M 23.245182 14.769132 C 24.994526 14.56369 26.282291 13.032967 26.185333 11.274271 C 26.088377 9.515574 24.640146 8.135688 22.87882 8.123792 C 22.115484 8.123792 21.425833 8.464206 20.707644 9.195889 C 20.210514 9.701839 19.75905 10.337521 19.371414 10.919234 Z M 18.018579 9.574183 C 18.474194 8.908924 19.052275 8.144548 19.731028 7.538445 C 20.295616 7.035089 20.87266 6.686373 21.484993 6.478284 L 21.484993 6.421202 C 21.397455 5.559499 21.013577 4.754884 20.398884 4.144683 C 19.784058 3.545609 18.959517 3.210427 18.101088 3.210618 C 17.218918 3.210618 16.336746 3.581649 15.682903 4.228748 C 15.12676 4.76929 14.771171 5.483032 14.674633 6.252551 Z"/>
    <path id="path1" fill="#4bc2ec" stroke="none"
          d="M 18.101088 1.674604 C 19.358915 1.673174 20.567423 2.163727 21.468388 3.041449 C 22.336546 3.881588 22.902174 5.07148 23.019968 6.306001 L 23.019968 6.311709 L 23.041763 6.590372 C 25.580084 6.673662 27.628056 8.693946 27.745895 11.230894 C 27.863737 13.767843 26.011856 15.969273 23.492189 16.287504 L 21.291952 16.316044 L 17.777281 12.787361 C 17.281189 13.537207 16.75967 14.2637 16.175362 14.858904 C 15.201859 15.84486 14.180098 16.325384 13.05092 16.325384 C 11.299487 16.343466 9.673302 15.419453 8.792324 13.905609 C 7.911346 12.391765 7.911346 10.521396 8.792324 9.007554 C 9.673302 7.49371 11.299487 6.569695 13.05092 6.587776 L 13.118899 6.587776 C 13.137061 3.921026 15.412025 1.674604 18.100571 1.674604 M 18.069952 10.101412 C 18.62105 9.268538 19.232342 8.435665 19.955723 7.790124 C 20.551447 7.259265 21.16741 6.907953 21.819696 6.728405 L 21.819696 6.64434 L 21.819696 6.405115 C 21.724735 5.455485 21.291431 4.544255 20.629284 3.903381 C 19.951849 3.242846 19.0431 2.873201 18.096937 2.873318 C 17.127068 2.873318 16.159275 3.280154 15.441602 3.989006 C 14.775824 4.647001 14.380923 5.490771 14.320209 6.376056 L 18.06632 10.099336 M 23.114412 15.116811 C 25.081905 14.976645 26.586926 13.30669 26.522467 11.335262 C 26.45801 9.363835 24.847118 7.795759 22.874672 7.784416 C 22.014812 7.784416 21.248363 8.157003 20.462711 8.957702 C 19.905388 9.525406 19.399956 10.24723 18.934481 10.962306 L 23.114412 15.116811 M 13.047288 15.124597 C 14.660623 15.124597 15.789801 13.646698 16.908602 11.913492 L 12.806505 7.7922 C 10.826563 7.916845 9.304119 9.592428 9.36923 11.575222 C 9.43434 13.558018 11.063432 15.130111 13.047288 15.124597 M 18.101088 1.000002 C 17.353039 0.999603 16.612734 1.151443 15.92524 1.446278 C 14.57925 2.021828 13.500736 3.085141 12.906139 4.422825 C 12.692595 4.905839 12.55031 5.417297 12.483735 5.941197 C 9.541832 6.235274 7.34853 8.786498 7.499138 11.739223 C 7.649746 14.691952 10.091249 17.006769 13.047807 16.999985 C 14.366911 16.999985 15.545906 16.454596 16.652252 15.332166 C 17.098476 14.868431 17.506634 14.369516 17.872763 13.840258 L 20.809872 16.79138 L 21.011732 16.993759 L 21.297142 16.990126 L 23.497379 16.961586 L 23.535259 16.961586 L 23.572622 16.956917 C 26.342112 16.603355 28.418348 14.248287 28.421967 11.45632 C 28.421238 9.978979 27.825266 8.564247 26.768675 7.531699 C 25.925209 6.69041 24.833696 6.142469 23.655132 5.9687 C 23.471434 4.675543 22.853394 3.444134 21.935417 2.556777 C 20.909227 1.557362 19.533012 0.998684 18.100571 1.000002 Z M 15.033729 6.131124 C 15.150015 5.498928 15.460137 4.918583 15.921089 4.470567 C 16.513699 3.885221 17.308172 3.549476 18.100571 3.549476 C 18.871525 3.549932 19.611835 3.851383 20.163811 4.389615 C 20.672724 4.894178 21.008478 5.54716 21.122782 6.254628 C 20.561306 6.482435 20.028372 6.825444 19.506855 7.288323 C 18.913206 7.817627 18.398432 8.457978 17.971355 9.052665 L 15.033729 6.131124 Z M 19.807829 10.876164 C 20.149799 10.373846 20.534323 9.854403 20.949461 9.432 C 21.608496 8.760512 22.20422 8.461092 22.87986 8.461092 C 24.439234 8.461831 25.737265 9.658706 25.864241 11.212904 C 25.991215 12.767105 24.904671 14.158794 23.366091 14.412631 L 19.807829 10.876164 Z M 13.049364 14.45207 C 11.496465 14.443489 10.207574 13.249674 10.080254 11.701982 C 9.952933 10.154289 11.0294 8.765889 12.560017 8.503644 L 16.04615 12.005861 C 15.628415 12.628571 15.181623 13.233118 14.703694 13.681987 C 14.142735 14.209213 13.617066 14.454664 13.049364 14.454664 Z"/>
    <path id="path2" fill="#26a9e0" stroke="none" d="M 22.296587 16.022852 L 18.339792 12.066057 L 18.014427 12.564224 L 21.473057 16.022852 L 22.296587 16.022852 Z"/>
    <path id="path3" fill="#26a9e0" stroke="none"
          d="M 22.878822 16.017143 L 22.758949 16.017143 L 18.223555 11.509769 L 18.128073 11.661297 C 16.775238 13.802896 15.377776 16.017143 13.049364 16.017143 C 11.408439 16.034649 9.884616 15.169258 9.059059 13.751022 C 8.233502 12.332785 8.233502 10.580378 9.059059 9.16214 C 9.884616 7.743904 11.408439 6.878513 13.049364 6.896017 L 13.169753 6.896017 L 17.381859 11.107605 L 17.050266 11.599545 L 12.93053 7.479807 C 10.743531 7.525926 9.004097 9.329171 9.03677 11.516411 C 9.069444 13.703652 10.861963 15.454137 13.049364 15.434912 C 15.055525 15.434912 16.308725 13.450545 17.635614 11.35046 L 17.800631 11.090998 L 13.425063 6.739303 L 13.425063 6.617875 C 13.425063 4.104727 15.566145 1.981287 18.100571 1.981287 C 19.27766 1.983212 20.407906 2.442641 21.252514 3.262512 C 22.095243 4.077741 22.60483 5.219374 22.711727 6.335061 L 22.73041 6.574803 C 22.527668 6.55539 22.32312 6.579632 22.130535 6.645895 L 22.130535 6.390587 C 22.039204 5.410856 21.591888 4.404144 20.845678 3.681801 C 20.109468 2.967632 19.124702 2.567249 18.099012 2.565077 C 17.04871 2.565077 16.002041 3.004087 15.227287 3.769499 C 14.469138 4.518309 14.03895 5.481949 14.007816 6.500079 L 18.119251 10.587123 C 19.364668 8.667105 20.729956 6.896017 22.876745 6.896017 C 24.51767 6.878513 26.041492 7.743904 26.86705 9.16214 C 27.692608 10.580378 27.692608 12.332785 26.86705 13.751022 C 26.041492 15.169258 24.51767 16.034649 22.876745 16.017143 Z M 18.543732 11.006933 L 22.997135 15.432837 C 25.14624 15.366451 26.854794 13.606451 26.85741 11.456321 C 26.833828 9.268935 25.06621 7.501552 22.878822 7.47825 C 21.930746 7.47825 21.094242 7.880416 20.24684 8.743906 C 19.633989 9.368172 19.077185 10.177174 18.543732 11.006933 Z"/>
</svg>
