<svg id="Layer_1" data-name="Layer 1" xmlns="http://www.w3.org/2000/svg" viewBox="7.5 4 35 35">
  <defs>
    <style>.cls-1{fill:#13b284;}.cls-2{fill:#9fe3cd;}</style>
  </defs>
  <path class="cls-1" d="M32.84,28.4a.79.79,0,0,0,.53.22.77.77,0,0,0,.53-.22.74.74,0,0,0,0-1.06l-2.25-2.25a.74.74,0,0,0-1.06,0l-2.25,2.25A.75.75,0,0,0,29.4,28.4l.94-.94a2.73,2.73,0,0,1,0,.41,5.22,5.22,0,0,1-9.22,3.39l-.44.45a2.27,2.27,0,0,1-.72.48,6.71,6.71,0,0,0,11.88-4.32c0-.17,0-.33-.05-.5Z"/>
  <path class="cls-1"
        d="M21.9,27.34a.74.74,0,0,0-1.06,0l-.93.93c0-.14,0-.27,0-.4a5.26,5.26,0,0,1,5.25-5.25,5.2,5.2,0,0,1,4,1.85l.44-.45a2.21,2.21,0,0,1,.73-.48,6.72,6.72,0,0,0-11.89,4.33c0,.16,0,.32.05.49l-1-1a.74.74,0,0,0-1.06,0,.75.75,0,0,0,0,1.06l2.25,2.25a.79.79,0,0,0,.53.22.77.77,0,0,0,.53-.22L21.9,28.4A.74.74,0,0,0,21.9,27.34Z"/>
  <path class="cls-2" d="M33.05,15.2a8.21,8.21,0,0,0-15.86,0,8.25,8.25,0,0,0,.19,16.35L15,29.19a6.72,6.72,0,0,1,3.35-12.57h.08a6.71,6.71,0,0,1,13.35,0h.07A6.74,6.74,0,0,1,33.08,30a7.78,7.78,0,0,1-.6,1.59,8.24,8.24,0,0,0,.57-16.38Z"/>
</svg>
